<svg width="361" height="82" viewBox="0 0 361 82" fill="none" xmlns="http://www.w3.org/2000/svg">
<path d="M6.89939 40.8174C5.69474 48.121 5.47571 53.6267 4.81862 63.2898C2.95688 63.4022 1.97125 63.4022 0 63.4022C2.08077 43.0647 5.36619 27.7835 10.5134 8.34485C12.8132 8.34485 13.9083 8.34485 16.0986 8.34485C20.6982 25.6486 25.0787 42.8399 29.1308 60.256C27.269 60.5931 26.2834 60.8178 24.4216 61.0426C22.4504 52.7278 21.3553 47.7839 19.603 40.7051C14.5654 40.8174 12.0466 40.9298 6.89939 40.8174ZM18.7269 35.6488C17.3032 30.2554 16.6461 27.5587 15.2225 22.2777C14.4559 19.2439 13.9083 16.4349 13.3607 13.7382H13.2512C12.7036 16.5473 12.1561 19.3563 11.3895 22.1654C9.96579 27.5587 9.3087 30.2554 7.88502 35.6488C12.1561 35.6488 14.3464 35.6488 18.7269 35.6488Z" fill="black"/>
<path d="M50.267 50.4807C50.1575 50.4807 50.1575 50.4807 50.267 50.4807C48.7338 54.301 45.996 57.8966 42.0535 58.7955C36.3587 60.0315 30.883 50.1436 31.1021 39.0198C31.4306 25.1993 37.4539 20.9296 42.9296 20.9296C46.9816 20.9296 49.6099 23.5139 50.9241 26.7724H51.0336C51.1431 24.7499 51.1431 23.7386 51.1431 21.7161C52.8954 21.7161 53.7715 21.7161 55.6332 21.7161C55.5237 24.5251 55.5237 27.4466 55.5237 30.9298C55.5237 46.0986 55.6332 54.7505 54.3191 69.3575C52.5668 69.9193 51.5812 70.2564 49.829 70.8182C50.3765 63.29 50.1575 58.7955 50.267 50.4807ZM50.7051 35.1995C50.7051 34.413 50.7051 33.4017 50.4861 32.6152C49.829 28.9073 47.3102 25.6488 43.6962 25.6488C38.768 25.6488 36.1397 30.4803 35.8112 38.5704C35.5921 45.6492 38.33 53.4021 43.3676 52.6156C46.3245 52.1662 48.8434 49.02 49.9385 44.4132C50.1575 43.5143 50.3765 42.2783 50.3765 41.3794C50.5956 38.9075 50.7051 37.6715 50.7051 35.1995Z" fill="black"/>
<path d="M84.8733 44.8625C84.8733 47.6716 84.9828 49.8065 85.2018 51.829C83.3401 51.829 82.464 51.9413 80.7117 52.0537C80.6022 50.3683 80.6022 49.5817 80.4927 47.784H80.3832C79.069 49.9188 76.1121 52.9526 71.403 53.5144C67.2415 54.0762 62.2038 52.0537 62.8609 40.9299C63.299 33.514 63.08 29.3566 63.08 21.6036C64.9417 21.6036 65.9273 21.6036 67.7891 21.6036C67.7891 29.0195 68.0081 33.0645 67.57 39.9186C67.132 45.7614 68.6652 49.357 73.0457 49.1323C76.3312 48.9076 78.631 46.548 79.5071 44.3007C79.8356 43.5142 79.9451 42.6153 80.0546 41.7164C80.2737 34.6376 80.2737 29.8061 80.2737 21.6036C82.1354 21.6036 83.121 21.6036 84.9828 21.6036C84.8733 31.3791 84.7638 37.1096 84.8733 44.8625Z" fill="black"/>
<path d="M107.433 52.2785C107.214 51.0425 107.105 50.3684 106.995 49.1324C106.886 49.1324 106.886 49.1324 106.886 49.1324C105.462 51.0425 102.724 52.6156 99.1103 52.5033C93.8536 52.3909 91.0062 48.9077 90.8967 45.1997C90.6777 38.7951 96.3724 33.7388 106.448 34.3006C106.448 34.0759 106.448 33.8512 106.448 33.6265C106.448 30.8174 105.791 25.6488 100.534 25.5364C98.1247 25.424 95.6058 26.4353 93.7441 27.896C93.306 26.3229 93.087 25.424 92.6489 23.851C94.8392 22.0532 97.9056 20.9296 101.191 20.9296C109.186 21.0419 111.157 28.5702 111.157 35.1995C111.157 40.2558 111.157 42.6154 111.266 46.4357C111.376 48.6829 111.485 50.7055 111.923 52.3909C110.062 52.3909 109.186 52.3909 107.433 52.2785ZM106.448 38.458C101.301 38.0086 95.3868 39.4693 95.4963 44.6379C95.6058 47.7841 97.6866 49.1324 100.096 49.2448C103.491 49.3571 105.572 47.447 106.229 45.1997C106.338 44.7503 106.448 44.1885 106.448 43.6267C106.448 41.7165 106.448 40.7053 106.448 38.458Z" fill="black"/>
<path d="M124.08 12.1653C124.08 16.2103 124.08 18.3452 124.189 22.5026C126.927 22.6149 128.241 22.6149 130.979 22.7273C130.979 24.7498 130.979 25.7611 131.089 27.7836C128.351 27.6712 127.037 27.5589 124.299 27.4465C124.408 35.1995 124.299 39.3569 124.408 45.1997C124.408 48.5705 125.394 50.256 128.022 50.4807C129.227 50.593 130.213 50.4807 130.76 50.3683C130.87 51.7167 130.979 52.3908 131.089 53.7392C130.213 54.0763 128.679 54.1886 126.927 54.0763C124.737 53.8515 122.985 53.065 121.78 51.829C120.466 50.3683 119.809 48.2334 119.809 45.0873C119.699 39.1321 119.809 34.9747 119.699 27.2218C118.057 27.1094 117.29 27.1094 115.647 26.997C115.647 25.0869 115.647 24.0756 115.647 22.1655C117.29 22.1655 118.057 22.2779 119.699 22.2779C119.699 18.907 119.699 17.1092 119.59 13.7383C121.232 13.0642 122.218 12.7271 124.08 12.1653Z" fill="black"/>
<path d="M141.382 12.5022C141.382 14.7495 140.287 16.6596 138.425 16.5473C136.783 16.5473 135.578 14.6371 135.578 12.3899C135.578 10.0303 136.783 8.34485 138.535 8.34485C140.178 8.45721 141.273 10.255 141.382 12.5022ZM136.564 54.3009C136.345 44.413 136.454 37.896 136.235 22.8395C138.097 22.9519 139.083 22.9519 140.944 23.0643C141.163 38.2331 141.163 44.7501 141.273 54.7503C139.411 54.5256 138.425 54.5256 136.564 54.3009Z" fill="black"/>
<path d="M167.666 55.3122C166.461 55.874 163.724 56.5482 160.219 56.4358C152.334 55.9864 147.187 51.829 147.187 41.9411C147.187 32.0533 152.444 22.6149 160.986 22.8396C163.833 22.952 166.242 24.0756 167.557 25.0869C167.228 27.3341 167.009 28.4577 166.571 30.705C165.476 29.6937 163.614 28.6824 161.095 28.6824C155.072 28.4577 152.006 35.4242 152.006 42.1659C152.006 49.6941 155.948 52.7279 161.095 53.065C163.833 53.1773 165.585 52.6155 166.9 52.0537C167.228 53.2897 167.338 53.9639 167.666 55.3122Z" fill="black"/>
<path d="M191.978 37.3343C186.393 37.6714 183.655 37.7838 178.07 37.7838C178.18 45.1997 178.07 47.784 178.07 52.8403C184.312 52.8403 187.379 52.7279 193.621 52.3908C193.621 53.9639 193.621 54.6381 193.621 56.0988C185.626 56.5482 181.574 56.5482 173.47 56.4359C173.47 42.6153 173.032 28.4578 172.923 8.5697C180.698 8.5697 184.641 8.5697 192.416 9.01915C192.416 11.154 192.416 12.2776 192.526 14.6372C186.612 14.4125 183.655 14.3002 177.741 14.3002C177.851 21.1542 177.96 25.0869 178.07 32.0533C183.655 32.0533 186.503 31.941 191.978 31.7162C191.978 33.9635 191.978 35.0871 191.978 37.3343Z" fill="black"/>
<path d="M198.658 51.1548C199.973 51.9413 202.382 52.7279 204.682 52.5031C207.967 52.2784 209.61 50.4806 209.61 48.2334C209.61 45.8738 208.296 44.6378 205.01 43.4018C200.52 41.8288 198.33 38.5703 198.22 34.0758C198.111 28.1206 201.287 23.0643 206.762 23.0643C209.391 23.0643 211.581 24.0756 213.005 25.1992C212.567 26.997 212.348 27.8959 211.91 29.806C210.924 29.0195 209.062 27.8959 206.653 28.0083C203.915 28.1206 202.491 30.4802 202.491 33.1769C202.491 36.2107 204.025 37.4467 207.42 38.795C211.8 40.7051 213.99 43.2895 213.99 47.3345C213.881 52.0537 210.486 55.4245 204.463 55.874C201.725 56.0987 199.206 55.5369 197.344 54.638C198.001 53.2897 198.22 52.6155 198.658 51.1548Z" fill="black"/>
<path d="M219.247 49.2447C220.561 50.0312 222.97 50.7054 225.27 50.4807C228.556 50.1436 230.198 48.2334 230.198 45.9862C230.198 43.6266 228.994 42.2783 225.599 41.1546C221.109 39.6939 219.028 36.5478 218.918 32.5028C218.918 27.2218 222.094 22.952 227.57 22.952C230.089 22.952 232.389 23.7386 233.812 24.6375C233.374 26.0982 233.155 26.8847 232.717 28.4578C231.732 27.7836 229.87 26.8847 227.57 26.9971C224.832 27.1094 223.409 29.1319 223.409 31.4915C223.409 34.0759 224.942 35.1995 228.227 36.4354C232.608 38.1209 234.798 40.8176 234.688 44.975C234.579 49.8065 231.075 53.2897 225.161 53.8515C222.423 54.0763 219.904 53.7392 218.152 52.8403C218.59 51.4919 218.809 50.7054 219.247 49.2447Z" fill="black"/>
<path d="M243.231 38.6827C243.231 46.4357 247.173 48.1211 251.773 47.784C255.168 47.5593 257.139 46.7728 258.891 45.8739C259.22 47.2222 259.329 48.0088 259.658 49.3571C258.015 50.256 255.168 51.2673 251.006 51.6043C243.121 52.1661 238.631 48.2335 238.741 38.5704C238.85 28.9072 243.231 22.9521 250.678 22.9521C259.001 22.8397 261.301 28.5702 261.301 34.413C261.301 35.649 261.191 36.5478 261.082 37.222C253.963 37.5591 250.349 37.8962 243.231 38.6827ZM256.811 33.2894C256.92 29.8061 255.606 25.7611 250.349 25.9858C245.64 26.2106 243.669 30.5927 243.231 34.413C248.707 33.9635 251.444 33.7388 256.811 33.2894Z" fill="black"/>
<path d="M267.215 29.1319C267.215 26.5476 267.215 24.8621 266.996 23.1767C268.638 23.1767 269.405 23.1767 270.938 23.0643C271.048 24.4127 271.048 25.0869 271.048 26.5476H271.157C272.362 24.4127 275.319 22.5025 279.48 22.2778C282.985 22.1655 288.022 21.716 287.694 31.9409C287.475 39.0197 287.365 43.0648 287.037 49.9188C285.284 49.9188 284.408 49.9188 282.656 49.9188C282.875 43.4018 282.875 39.6939 283.094 32.6151C283.204 27.6712 281.999 25.1992 277.728 25.4239C274.771 25.5363 272.471 27.3341 271.705 30.0308C271.486 30.5926 271.376 31.4915 271.376 32.3904C271.267 39.4692 271.267 43.5142 271.267 50.1436C269.624 50.1436 269.076 50.1436 267.105 50.2559C267.105 42.2782 267.105 36.3231 267.215 29.1319Z" fill="black"/>
<path d="M302.259 14.9742C301.931 18.008 301.712 19.1316 301.383 21.6036C304.121 21.3789 305.435 21.3789 308.173 21.1541C308.064 22.3901 307.954 22.9519 307.845 24.3003C305.107 24.4126 303.793 24.525 301.055 24.6374C300.507 29.5813 300.617 33.514 300.288 40.2557C300.069 44.076 300.836 46.2108 303.464 46.2108C304.669 46.2108 305.654 45.9861 306.202 45.8738C306.202 47.5592 306.202 48.3457 306.092 50.0311C305.107 50.4806 303.683 50.7053 301.931 50.7053C299.741 50.7053 298.098 49.8064 297.003 48.4581C295.798 46.885 295.47 44.3007 295.689 40.7051C296.017 33.9634 296.017 29.9184 296.455 25.0868C294.812 25.1992 294.046 25.1992 292.513 25.3115C292.622 24.0756 292.732 23.5137 292.841 22.3901C294.484 22.2778 295.251 22.2778 296.784 22.1654C297.003 20.1429 297.222 19.1316 297.441 16.772C299.412 15.9855 300.288 15.6484 302.259 14.9742Z" fill="black"/>
<path d="M319.781 13.7383C319.562 15.3114 318.248 16.6597 316.386 16.7721C314.744 16.8844 313.649 15.8732 313.868 14.1878C314.087 12.5023 315.51 10.8169 317.262 10.7045C319.015 10.5922 320 11.9405 319.781 13.7383ZM311.677 50.1436C312.444 37.6714 312.334 29.9184 313.539 20.8171C315.401 20.7047 316.386 20.5924 318.358 20.48C317.153 29.6937 317.372 37.559 316.605 50.2559C314.634 50.2559 313.649 50.2559 311.677 50.1436Z" fill="black"/>
<path d="M340.042 51.2672C339.932 49.4694 339.932 48.5705 339.822 46.7728C339.713 46.7728 339.713 46.7728 339.603 46.7728C337.961 49.4694 334.894 51.7167 330.952 51.492C325.367 51.2672 322.848 46.4357 323.176 41.7165C323.724 33.6264 329.309 29.2443 339.603 29.0196C339.603 28.7949 339.603 28.6825 339.603 28.3454C339.603 25.8735 339.275 22.0531 333.799 22.2779C331.39 22.3902 328.762 23.1768 326.79 24.4127C326.462 23.1768 326.243 22.615 325.914 21.4913C328.214 20.143 331.499 19.1317 334.785 18.907C342.779 18.5699 344.094 23.1768 344.313 29.469C344.422 34.1882 344.532 37.1096 344.422 42.6154C344.313 45.7615 344.313 48.9076 344.641 51.3796C342.779 51.492 341.794 51.3796 340.042 51.2672ZM339.822 33.177C334.566 33.0646 328.543 34.413 328.104 41.0423C327.885 45.0873 329.857 46.9975 332.376 47.1098C335.989 47.2222 338.399 44.4132 339.275 41.3794C339.494 40.7052 339.603 40.031 339.603 39.3569C339.822 36.7726 339.822 35.5366 339.822 33.177Z" fill="black"/>
<path d="M353.949 5.98535C355.811 5.98535 356.797 5.98535 358.659 5.98535C356.468 25.8734 356.797 30.2555 357.673 52.6155C355.592 52.3908 354.497 52.2784 352.416 52.1661C352.197 30.3679 351.869 25.9858 353.949 5.98535Z" fill="black"/>
</svg>
