<svg width="25" height="27" viewBox="0 0 25 27" fill="none" xmlns="http://www.w3.org/2000/svg">
<path d="M17.8495 17.5115L17.6088 17.8414L17.884 18.1431L24.0816 24.939C24.3347 25.2166 24.3347 25.6841 24.0816 25.9616C23.8527 26.2127 23.5023 26.2127 23.2733 25.9616L17.0758 19.1658L16.7453 18.8034L16.3766 19.1268C14.7762 20.5306 12.7547 21.3636 10.5607 21.3636C5.44148 21.3636 1.21484 16.7981 1.21484 11.0673C1.21484 5.33644 5.44148 0.770996 10.5607 0.770996C15.6799 0.770996 19.9065 5.33644 19.9065 11.0673C19.9065 13.5106 19.1344 15.7502 17.8495 17.5115ZM2.39183 11.0673C2.39183 15.9433 6.00678 19.9764 10.5607 19.9764C15.1146 19.9764 18.7295 15.9433 18.7295 11.0673C18.7295 6.19126 15.1146 2.15814 10.5607 2.15814C6.00678 2.15814 2.39183 6.19126 2.39183 11.0673Z" fill="black" stroke="black"/>
</svg>
