<svg width="29" height="31" viewBox="0 0 29 31" fill="none" xmlns="http://www.w3.org/2000/svg">
<path fill-rule="evenodd" clip-rule="evenodd" d="M19.972 7.74996C19.9494 7.64573 19.9259 7.54125 19.9015 7.43668C19.5824 6.07257 19.0801 4.59032 18.261 3.42288C17.4164 2.21907 16.1831 1.29163 14.5 1.29163C12.817 1.29163 11.5837 2.21907 10.7391 3.42288C9.92 4.59032 9.41763 6.07257 9.09861 7.43669C9.07415 7.54125 9.05064 7.64573 9.02803 7.74996H7.09428C5.18585 7.74996 3.60426 9.33167 3.47731 11.3672L2.5912 25.5755C2.45171 27.8121 4.11124 29.7083 6.20817 29.7083H22.7919C24.8888 29.7083 26.5483 27.8121 26.4089 25.5755L25.5227 11.3672C25.3958 9.33167 23.8142 7.74996 21.9058 7.74996H19.972ZM9.6667 14.2083C10.3591 14.2083 10.8727 13.6508 10.875 12.9143C10.8752 12.8835 10.8756 12.8528 10.876 12.8221C10.8771 12.754 10.8793 12.6513 10.8837 12.5187C10.8926 12.2534 10.9104 11.8704 10.9464 11.4093C10.9719 11.0822 11.0062 10.719 11.0523 10.3333H17.9477C17.9938 10.719 18.0282 11.0822 18.0537 11.4093C18.0896 11.8704 18.1075 12.2534 18.1164 12.5187C18.1208 12.6513 18.123 12.754 18.124 12.8221C18.1245 12.8538 18.1249 12.8855 18.125 12.9171C18.125 12.9171 18.125 14.2083 19.3334 14.2083C20.5417 14.2083 20.5417 12.9149 20.5417 12.9149C20.5416 12.8696 20.5411 12.8243 20.5403 12.7791C20.539 12.6957 20.5365 12.5765 20.5315 12.4265C20.5215 12.1267 20.5016 11.7025 20.462 11.1948C20.4414 10.9301 20.4152 10.6409 20.3821 10.3333H21.9058C22.5419 10.3333 23.0691 10.8605 23.1114 11.539L23.9975 25.7474C24.044 26.4929 23.4909 27.125 22.7919 27.125H6.20817C5.50919 27.125 4.95602 26.4929 5.00251 25.7474L5.88863 11.539C5.93094 10.8605 6.45814 10.3333 7.09428 10.3333H8.61796C8.58482 10.6409 8.5587 10.9301 8.53806 11.1948C8.49848 11.7025 8.47859 12.1267 8.46858 12.4265C8.46356 12.5765 8.46101 12.6957 8.45971 12.7791C8.45902 12.8234 8.4585 12.8678 8.45837 12.9122C8.45745 13.6492 8.97593 14.2083 9.6667 14.2083ZM11.5197 7.74996H17.4804C17.201 6.6562 16.8212 5.67639 16.3276 4.97288C15.8129 4.23919 15.2337 3.87496 14.5 3.87496C13.7664 3.87496 13.1872 4.23919 12.6724 4.97288C12.1788 5.67639 11.7991 6.6562 11.5197 7.74996Z" fill="#0F0F0F"/>
</svg>
