<svg width="28" height="27" viewBox="0 0 28 27" fill="none" xmlns="http://www.w3.org/2000/svg">
<path d="M21.4026 8.4696C21.4026 12.6081 18.0978 15.9392 14.0504 15.9392C10.003 15.9392 6.69824 12.6081 6.69824 8.4696C6.69824 4.33105 10.003 1 14.0504 1C18.0978 1 21.4026 4.33105 21.4026 8.4696Z" stroke="black" stroke-width="2"/>
<path d="M1 26.9999C1 25.5762 1.32405 24.5052 1.95366 23.1899C2.58327 21.8746 3.50609 20.6795 4.66945 19.6728C5.83281 18.6662 7.21392 17.8676 8.73393 17.3228C10.2539 16.778 11.8831 16.4976 13.5283 16.4976C15.1735 16.4976 16.8027 16.778 18.3227 17.3228C19.8427 17.8676 21.2238 18.6662 22.3871 19.6728C23.5505 20.6795 24.4733 21.8746 25.1029 23.1899C25.7326 24.5052 26.0566 25.5762 26.0566 26.9999" stroke="black" stroke-width="2"/>
</svg>
